<?xml version="1.0" encoding="UTF-8"?>
<!DOCTYPE svg PUBLIC "-//W3C//DTD SVG 1.1//EN" "http://www.w3.org/Graphics/SVG/1.1/DTD/svg11.dtd">
<svg xmlns="http://www.w3.org/2000/svg" version="1.1" width="239px" height="240px" style="shape-rendering:geometricPrecision; text-rendering:geometricPrecision; image-rendering:optimizeQuality; fill-rule:evenodd; clip-rule:evenodd" xmlns:xlink="http://www.w3.org/1999/xlink">
<g><path style="opacity:0.012" fill="#fe55ff" d="M 90.5,10.5 C 91.8333,11.1667 91.8333,11.1667 90.5,10.5 Z"/></g>
<g><path style="opacity:0.992" fill="#e42afd" d="M 104.5,9.5 C 112.99,10.3296 121.657,10.8296 130.5,11C 131.035,13.1087 132.035,13.6087 133.5,12.5C 135.115,13.154 136.782,13.654 138.5,14C 137.5,14.3333 136.5,14.6667 135.5,15C 136.46,16.4194 137.293,17.9194 138,19.5C 138.483,18.552 138.649,17.552 138.5,16.5C 139.552,16.3505 140.552,16.5172 141.5,17C 140.62,18.3561 140.286,19.8561 140.5,21.5C 144.893,21.5432 145.226,21.0432 141.5,20C 142.793,19.51 144.127,19.3433 145.5,19.5C 145.36,21.1238 146.027,22.2904 147.5,23C 146.809,24.0674 146.309,25.2341 146,26.5C 144.934,24.9005 143.434,23.9005 141.5,23.5C 140.126,24.7113 138.626,25.7113 137,26.5C 136.055,26.0946 135.388,25.428 135,24.5C 134,25.5 133,26.5 132,27.5C 129.243,26.0205 126.41,26.3538 123.5,28.5C 121.506,26.0834 119.673,26.0834 118,28.5C 115.112,27.9094 112.446,26.9094 110,25.5C 107.352,27.2837 104.685,28.9504 102,30.5C 101.51,29.2068 101.343,27.8734 101.5,26.5C 98.8127,26.6641 96.146,26.4974 93.5,26C 93.8333,25.6667 94.1667,25.3333 94.5,25C 92.7703,23.1476 91.6036,23.3143 91,25.5C 89.6569,24.7865 88.3236,25.1198 87,26.5C 85.6253,24.0632 85.1253,21.3965 85.5,18.5C 88.2116,18.2625 90.7116,18.2625 93,18.5C 93.8333,17.6667 94.6667,16.8333 95.5,16C 92.5,15.6667 89.5,15.3333 86.5,15C 87.7375,14.7679 88.7375,14.2679 89.5,13.5C 94.2833,11.6714 99.2833,10.3381 104.5,9.5 Z"/></g>
<g><path style="opacity:0.004" fill="#fe00ff" d="M 150.5,12.5 C 151.833,13.1667 151.833,13.1667 150.5,12.5 Z"/></g>
<g><path style="opacity:0.994" fill="#de2efd" d="M 104.5,9.5 C 120.058,8.60171 135.392,9.93505 150.5,13.5C 155.028,15.4039 159.694,17.2372 164.5,19C 167.898,20.3571 170.898,22.1904 173.5,24.5C 172.527,24.9867 171.527,25.4867 170.5,26C 171.711,26.8928 171.711,27.7261 170.5,28.5C 169.914,28.2907 169.414,27.9574 169,27.5C 168,28.5 167,29.5 166,30.5C 165,29.8333 164,29.1667 163,28.5C 161.561,30.2746 160.561,32.2746 160,34.5C 159.16,31.5363 158.16,31.203 157,33.5C 156.667,33.1667 156.333,32.8333 156,32.5C 155.311,33.3567 154.478,34.0233 153.5,34.5C 152.04,32.5776 150.373,31.9109 148.5,32.5C 148.704,33.5294 148.204,34.5294 147,35.5C 146.667,34.8333 146.333,34.1667 146,33.5C 144.556,35.1554 142.722,35.822 140.5,35.5C 140.307,39.449 139.807,39.449 139,35.5C 137.663,37.0037 135.996,38.0037 134,38.5C 133.667,38.1667 133.333,37.8333 133,37.5C 132.692,38.3081 132.192,38.9747 131.5,39.5C 129.878,37.5614 128.044,37.228 126,38.5C 123.74,36.0028 122.407,36.6695 122,40.5C 121.667,39.5 121.333,38.5 121,37.5C 117.225,38.3806 113.558,38.3806 110,37.5C 109.333,38.1667 108.667,38.8333 108,39.5C 105.577,38.2878 103.244,36.9544 101,35.5C 98.5538,37.9239 96.0538,37.9239 93.5,35.5C 90.9222,36.7322 88.4222,37.3989 86,37.5C 85.6667,36.8333 85.3333,36.1667 85,35.5C 82.101,35.9767 79.4343,36.9767 77,38.5C 75,36.5 73,34.5 71,32.5C 69.8631,33.364 68.5298,34.364 67,35.5C 66.342,33.892 66.842,32.7253 68.5,32C 67.552,31.5172 66.552,31.3505 65.5,31.5C 65.7978,34.3356 65.1311,34.8356 63.5,33C 64.3402,31.3335 63.8402,31.1669 62,32.5C 61.5065,30.8659 61.3398,29.1992 61.5,27.5C 60.448,27.6495 59.448,27.4828 58.5,27C 60.1012,26.7266 61.6012,26.2266 63,25.5C 65.0639,26.5914 67.2305,26.7581 69.5,26C 68.6919,25.6924 68.0253,25.1924 67.5,24.5C 68.8569,22.8144 70.1902,21.1477 71.5,19.5C 77.059,16.398 83.059,14.398 89.5,13.5C 88.7375,14.2679 87.7375,14.7679 86.5,15C 89.5,15.3333 92.5,15.6667 95.5,16C 94.6667,16.8333 93.8333,17.6667 93,18.5C 90.7116,18.2625 88.2116,18.2625 85.5,18.5C 85.1253,21.3965 85.6253,24.0632 87,26.5C 88.3236,25.1198 89.6569,24.7865 91,25.5C 91.6036,23.3143 92.7703,23.1476 94.5,25C 94.1667,25.3333 93.8333,25.6667 93.5,26C 96.146,26.4974 98.8127,26.6641 101.5,26.5C 101.343,27.8734 101.51,29.2068 102,30.5C 104.685,28.9504 107.352,27.2837 110,25.5C 112.446,26.9094 115.112,27.9094 118,28.5C 119.673,26.0834 121.506,26.0834 123.5,28.5C 126.41,26.3538 129.243,26.0205 132,27.5C 133,26.5 134,25.5 135,24.5C 135.388,25.428 136.055,26.0946 137,26.5C 138.626,25.7113 140.126,24.7113 141.5,23.5C 143.434,23.9005 144.934,24.9005 146,26.5C 146.309,25.2341 146.809,24.0674 147.5,23C 146.027,22.2904 145.36,21.1238 145.5,19.5C 144.127,19.3433 142.793,19.51 141.5,20C 145.226,21.0432 144.893,21.5432 140.5,21.5C 140.286,19.8561 140.62,18.3561 141.5,17C 140.552,16.5172 139.552,16.3505 138.5,16.5C 138.649,17.552 138.483,18.552 138,19.5C 137.293,17.9194 136.46,16.4194 135.5,15C 136.5,14.6667 137.5,14.3333 138.5,14C 136.782,13.654 135.115,13.154 133.5,12.5C 132.035,13.6087 131.035,13.1087 130.5,11C 121.657,10.8296 112.99,10.3296 104.5,9.5 Z"/></g>
<g><path style="opacity:0.994" fill="#d730fe" d="M 71.5,19.5 C 70.1902,21.1477 68.8569,22.8144 67.5,24.5C 68.0253,25.1924 68.6919,25.6924 69.5,26C 67.2305,26.7581 65.0639,26.5914 63,25.5C 61.6012,26.2266 60.1012,26.7266 58.5,27C 59.448,27.4828 60.448,27.6495 61.5,27.5C 61.3398,29.1992 61.5065,30.8659 62,32.5C 63.8402,31.1669 64.3402,31.3335 63.5,33C 65.1311,34.8356 65.7978,34.3356 65.5,31.5C 66.552,31.3505 67.552,31.5172 68.5,32C 66.842,32.7253 66.342,33.892 67,35.5C 68.5298,34.364 69.8631,33.364 71,32.5C 73,34.5 75,36.5 77,38.5C 79.4343,36.9767 82.101,35.9767 85,35.5C 85.3333,36.1667 85.6667,36.8333 86,37.5C 88.4222,37.3989 90.9222,36.7322 93.5,35.5C 96.0538,37.9239 98.5538,37.9239 101,35.5C 103.244,36.9544 105.577,38.2878 108,39.5C 108.667,38.8333 109.333,38.1667 110,37.5C 113.558,38.3806 117.225,38.3806 121,37.5C 121.333,38.5 121.667,39.5 122,40.5C 122.407,36.6695 123.74,36.0028 126,38.5C 128.044,37.228 129.878,37.5614 131.5,39.5C 132.192,38.9747 132.692,38.3081 133,37.5C 133.333,37.8333 133.667,38.1667 134,38.5C 135.996,38.0037 137.663,37.0037 139,35.5C 139.807,39.449 140.307,39.449 140.5,35.5C 142.722,35.822 144.556,35.1554 146,33.5C 146.333,34.1667 146.667,34.8333 147,35.5C 148.204,34.5294 148.704,33.5294 148.5,32.5C 150.373,31.9109 152.04,32.5776 153.5,34.5C 154.478,34.0233 155.311,33.3567 156,32.5C 156.333,32.8333 156.667,33.1667 157,33.5C 158.16,31.203 159.16,31.5363 160,34.5C 160.561,32.2746 161.561,30.2746 163,28.5C 164,29.1667 165,29.8333 166,30.5C 167,29.5 168,28.5 169,27.5C 169.414,27.9574 169.914,28.2907 170.5,28.5C 171.711,27.7261 171.711,26.8928 170.5,26C 171.527,25.4867 172.527,24.9867 173.5,24.5C 173.833,24.5 174.167,24.5 174.5,24.5C 175.682,26.0031 176.182,27.6698 176,29.5C 175,28.8333 174,28.1667 173,27.5C 173.498,29.5269 173.331,31.5269 172.5,33.5C 171.232,32.5721 169.899,32.4054 168.5,33C 169.38,34.3561 169.714,35.8561 169.5,37.5C 166.348,38.0414 163.848,37.0414 162,34.5C 162,35.8333 162,37.1667 162,38.5C 160.817,37.269 159.651,37.269 158.5,38.5C 157.483,41.696 155.483,43.5293 152.5,44C 155.179,42.2112 155.013,41.0445 152,40.5C 149.375,41.4614 147.375,43.1281 146,45.5C 143.667,44.8333 141.333,44.1667 139,43.5C 137.667,47.5 136.333,47.5 135,43.5C 133.493,45.008 131.827,46.3413 130,47.5C 129.517,46.552 129.351,45.552 129.5,44.5C 128.5,44.5 127.5,44.5 126.5,44.5C 126.587,47.5983 126.087,47.9316 125,45.5C 124.196,46.8045 123.029,47.4712 121.5,47.5C 117.774,45.9618 113.941,44.6284 110,43.5C 107.904,44.7155 108.071,45.5488 110.5,46C 107.923,47.2504 105.257,47.5837 102.5,47C 101.809,45.9326 101.309,44.7659 101,43.5C 99.4244,42.9875 98.091,43.6542 97,45.5C 95.2739,43.9022 94.4406,44.2355 94.5,46.5C 91.8643,45.1764 89.1977,45.1764 86.5,46.5C 84.9411,45.9264 83.4411,45.2598 82,44.5C 80.1154,46.7154 78.2821,46.3821 76.5,43.5C 72.9338,44.8521 69.7671,44.1854 67,41.5C 64.5289,42.4034 62.3622,41.7367 60.5,39.5C 59.5,40.8333 58.5,40.8333 57.5,39.5C 56.8076,40.0253 56.3076,40.6919 56,41.5C 54.1476,39.7703 54.3143,38.6036 56.5,38C 55.552,37.5172 54.552,37.3505 53.5,37.5C 53.6567,38.8734 53.49,40.2068 53,41.5C 51.5774,38.0615 49.244,36.7281 46,37.5C 45.5357,36.9056 45.369,36.2389 45.5,35.5C 52.8591,28.1607 61.5258,22.8274 71.5,19.5 Z"/></g>
<g><path style="opacity:0.993" fill="#d233fd" d="M 174.5,24.5 C 179.909,26.8642 184.576,30.1975 188.5,34.5C 189.323,36.4546 189.49,38.4546 189,40.5C 188.026,38.1224 187.359,38.4557 187,41.5C 186,40.5 185,39.5 184,38.5C 181.57,41.386 178.903,44.0527 176,46.5C 173.909,45.5004 172.243,46.1671 171,48.5C 170.667,47.8333 170.333,47.1667 170,46.5C 169.29,47.9733 168.124,48.6399 166.5,48.5C 166.587,51.5983 166.087,51.9316 165,49.5C 164.333,50.8333 163.667,50.8333 163,49.5C 162.667,50.5 162.333,51.5 162,52.5C 155.29,52.1284 148.456,52.1284 141.5,52.5C 141.477,50.0733 140.977,47.74 140,45.5C 136.519,49.8843 132.186,51.2176 127,49.5C 125.2,51.8307 123.2,51.8307 121,49.5C 119.795,50.0712 118.628,50.7379 117.5,51.5C 109.528,52.4977 101.528,52.831 93.5,52.5C 93.5172,50.4352 93.8505,48.4352 94.5,46.5C 94.4406,44.2355 95.2739,43.9022 97,45.5C 98.091,43.6542 99.4244,42.9875 101,43.5C 101.309,44.7659 101.809,45.9326 102.5,47C 105.257,47.5837 107.923,47.2504 110.5,46C 108.071,45.5488 107.904,44.7155 110,43.5C 113.941,44.6284 117.774,45.9618 121.5,47.5C 123.029,47.4712 124.196,46.8045 125,45.5C 126.087,47.9316 126.587,47.5983 126.5,44.5C 127.5,44.5 128.5,44.5 129.5,44.5C 129.351,45.552 129.517,46.552 130,47.5C 131.827,46.3413 133.493,45.008 135,43.5C 136.333,47.5 137.667,47.5 139,43.5C 141.333,44.1667 143.667,44.8333 146,45.5C 147.375,43.1281 149.375,41.4614 152,40.5C 155.013,41.0445 155.179,42.2112 152.5,44C 155.483,43.5293 157.483,41.696 158.5,38.5C 159.651,37.269 160.817,37.269 162,38.5C 162,37.1667 162,35.8333 162,34.5C 163.848,37.0414 166.348,38.0414 169.5,37.5C 169.714,35.8561 169.38,34.3561 168.5,33C 169.899,32.4054 171.232,32.5721 172.5,33.5C 173.331,31.5269 173.498,29.5269 173,27.5C 174,28.1667 175,28.8333 176,29.5C 176.182,27.6698 175.682,26.0031 174.5,24.5 Z"/></g>
<g><path style="opacity:0.008" fill="#fe7fff" d="M 42.5,34.5 C 43.8333,35.1667 43.8333,35.1667 42.5,34.5 Z"/></g>
<g><path style="opacity:0.993" fill="#ca3bfd" d="M 188.5,34.5 C 192.12,36.4528 195.12,39.1195 197.5,42.5C 197.67,43.8221 197.337,44.9887 196.5,46C 194.275,46.5611 192.275,47.5611 190.5,49C 191.167,49.3333 191.833,49.6667 192.5,50C 190.833,50.3333 189.167,50.6667 187.5,51C 188.167,51.3333 188.833,51.6667 189.5,52C 187.782,52.346 186.115,52.846 184.5,53.5C 183.914,53.2907 183.414,52.9574 183,52.5C 181.988,54.8642 180.655,56.1976 179,56.5C 176.256,56.7863 173.423,56.453 170.5,55.5C 142.209,54.3501 113.876,54.1835 85.5,55C 84.644,63.8936 84.3107,73.0603 84.5,82.5C 83.8622,86.4271 83.0289,90.4271 82,94.5C 81.9244,90.2036 81.0911,86.2036 79.5,82.5C 79.5,73.1667 79.5,63.8333 79.5,54.5C 76.8127,54.3359 74.146,54.5026 71.5,55C 69.1192,55.2233 67.4525,56.39 66.5,58.5C 65.5041,58.4142 64.6708,58.7476 64,59.5C 59.5325,58.8065 55.0325,58.1398 50.5,57.5C 49.8333,58.1667 49.1667,58.8333 48.5,59.5C 48.3309,58.6034 47.9976,57.6034 47.5,56.5C 44.744,56.2181 41.9107,56.2181 39,56.5C 37.6667,55.8333 36.3333,55.1667 35,54.5C 34.6667,55.1667 34.3333,55.8333 34,56.5C 31.3463,54.2066 30.8463,51.54 32.5,48.5C 36.1237,43.5087 40.4571,39.1754 45.5,35.5C 45.369,36.2389 45.5357,36.9056 46,37.5C 49.244,36.7281 51.5774,38.0615 53,41.5C 53.49,40.2068 53.6567,38.8734 53.5,37.5C 54.552,37.3505 55.552,37.5172 56.5,38C 54.3143,38.6036 54.1476,39.7703 56,41.5C 56.3076,40.6919 56.8076,40.0253 57.5,39.5C 58.5,40.8333 59.5,40.8333 60.5,39.5C 62.3622,41.7367 64.5289,42.4034 67,41.5C 69.7671,44.1854 72.9338,44.8521 76.5,43.5C 78.2821,46.3821 80.1154,46.7154 82,44.5C 83.4411,45.2598 84.9411,45.9264 86.5,46.5C 89.1977,45.1764 91.8643,45.1764 94.5,46.5C 93.8505,48.4352 93.5172,50.4352 93.5,52.5C 101.528,52.831 109.528,52.4977 117.5,51.5C 118.628,50.7379 119.795,50.0712 121,49.5C 123.2,51.8307 125.2,51.8307 127,49.5C 132.186,51.2176 136.519,49.8843 140,45.5C 140.977,47.74 141.477,50.0733 141.5,52.5C 148.456,52.1284 155.29,52.1284 162,52.5C 162.333,51.5 162.667,50.5 163,49.5C 163.667,50.8333 164.333,50.8333 165,49.5C 166.087,51.9316 166.587,51.5983 166.5,48.5C 168.124,48.6399 169.29,47.9733 170,46.5C 170.333,47.1667 170.667,47.8333 171,48.5C 172.243,46.1671 173.909,45.5004 176,46.5C 178.903,44.0527 181.57,41.386 184,38.5C 185,39.5 186,40.5 187,41.5C 187.359,38.4557 188.026,38.1224 189,40.5C 189.49,38.4546 189.323,36.4546 188.5,34.5 Z"/></g>
<g><path style="opacity:0.004" fill="#fe00ff" d="M 33.5,43.5 C 34.8333,44.1667 34.8333,44.1667 33.5,43.5 Z"/></g>
<g><path style="opacity:0.993" fill="#bc44fd" d="M 197.5,42.5 C 203.636,47.9657 208.636,54.299 212.5,61.5C 212.785,63.288 212.452,64.9547 211.5,66.5C 209.836,65.7769 208.169,66.1103 206.5,67.5C 204.165,72.9846 201.665,73.3179 199,68.5C 197.414,69.376 195.914,70.376 194.5,71.5C 193.522,71.0233 192.689,70.3567 192,69.5C 190.333,70.8333 188.667,72.1667 187,73.5C 186.667,72.8333 186.333,72.1667 186,71.5C 184.667,72.1667 183.333,72.8333 182,73.5C 181.667,72.8333 181.333,72.1667 181,71.5C 180.282,72.4506 179.449,72.6172 178.5,72C 175.892,69.6022 174.225,66.7688 173.5,63.5C 173.278,60.4958 172.278,57.8292 170.5,55.5C 173.423,56.453 176.256,56.7863 179,56.5C 180.655,56.1976 181.988,54.8642 183,52.5C 183.414,52.9574 183.914,53.2907 184.5,53.5C 186.115,52.846 187.782,52.346 189.5,52C 188.833,51.6667 188.167,51.3333 187.5,51C 189.167,50.6667 190.833,50.3333 192.5,50C 191.833,49.6667 191.167,49.3333 190.5,49C 192.275,47.5611 194.275,46.5611 196.5,46C 197.337,44.9887 197.67,43.8221 197.5,42.5 Z"/></g>
<g><path style="opacity:0.993" fill="#b548fd" d="M 32.5,48.5 C 30.8463,51.54 31.3463,54.2066 34,56.5C 34.3333,55.8333 34.6667,55.1667 35,54.5C 36.3333,55.1667 37.6667,55.8333 39,56.5C 41.9107,56.2181 44.744,56.2181 47.5,56.5C 47.9976,57.6034 48.3309,58.6034 48.5,59.5C 49.1667,58.8333 49.8333,58.1667 50.5,57.5C 55.0325,58.1398 59.5325,58.8065 64,59.5C 64.6708,58.7476 65.5041,58.4142 66.5,58.5C 64.7127,64.2569 64.046,69.5902 64.5,74.5C 63.596,75.209 63.2627,76.209 63.5,77.5C 61.6096,77.7035 60.1096,77.0368 59,75.5C 58.6667,76.1667 58.3333,76.8333 58,77.5C 56.6152,76.4495 55.6152,75.1161 55,73.5C 54.3333,74.8333 53.6667,74.8333 53,73.5C 52.0255,75.8776 51.3589,75.5443 51,72.5C 49.6667,71.8333 48.3333,71.1667 47,70.5C 45.5267,73.7411 43.6934,74.0744 41.5,71.5C 40.2519,72.0402 39.0852,72.7069 38,73.5C 35.9423,70.4269 33.2756,69.4269 30,70.5C 27.7744,70.0216 25.6077,69.355 23.5,68.5C 21.9951,67.1585 21.3285,65.4918 21.5,63.5C 24.4365,57.9586 28.1031,52.9586 32.5,48.5 Z"/></g>
<g><path style="opacity:0.004" fill="#fe00ff" d="M 14.5,74.5 C 13.8333,73.1667 13.8333,73.1667 14.5,74.5 Z"/></g>
<g><path style="opacity:0.993" fill="#ad4cfd" d="M 212.5,61.5 C 215.905,65.2951 218.571,69.6285 220.5,74.5C 219.549,75.9187 219.216,77.5853 219.5,79.5C 216.245,79.0136 213.578,80.0136 211.5,82.5C 209.765,81.943 208.098,81.6097 206.5,81.5C 205.522,81.9767 204.689,82.6433 204,83.5C 199.551,84.4793 195.217,84.4793 191,83.5C 190.667,84.1667 190.333,84.8333 190,85.5C 188.732,85.3842 187.398,85.0509 186,84.5C 185.667,85.1667 185.333,85.8333 185,86.5C 184.751,85.376 184.251,84.376 183.5,83.5C 181.575,83.837 180.075,85.1703 179,87.5C 178.3,85.968 177.134,84.968 175.5,84.5C 174.833,81.0227 174.166,77.6893 173.5,74.5C 173.5,70.8333 173.5,67.1667 173.5,63.5C 174.225,66.7688 175.892,69.6022 178.5,72C 179.449,72.6172 180.282,72.4506 181,71.5C 181.333,72.1667 181.667,72.8333 182,73.5C 183.333,72.8333 184.667,72.1667 186,71.5C 186.333,72.1667 186.667,72.8333 187,73.5C 188.667,72.1667 190.333,70.8333 192,69.5C 192.689,70.3567 193.522,71.0233 194.5,71.5C 195.914,70.376 197.414,69.376 199,68.5C 201.665,73.3179 204.165,72.9846 206.5,67.5C 208.169,66.1103 209.836,65.7769 211.5,66.5C 212.452,64.9547 212.785,63.288 212.5,61.5 Z"/></g>
<g><path style="opacity:0.994" fill="#a850fd" d="M 21.5,63.5 C 21.3285,65.4918 21.9951,67.1585 23.5,68.5C 25.6077,69.355 27.7744,70.0216 30,70.5C 33.2756,69.4269 35.9423,70.4269 38,73.5C 39.0852,72.7069 40.2519,72.0402 41.5,71.5C 43.6934,74.0744 45.5267,73.7411 47,70.5C 48.3333,71.1667 49.6667,71.8333 51,72.5C 51.3589,75.5443 52.0255,75.8776 53,73.5C 53.6667,74.8333 54.3333,74.8333 55,73.5C 55.6152,75.1161 56.6152,76.4495 58,77.5C 58.3333,76.8333 58.6667,76.1667 59,75.5C 60.1096,77.0368 61.6096,77.7035 63.5,77.5C 63.2627,76.209 63.596,75.209 64.5,74.5C 64.5753,81.0108 64.9086,87.3441 65.5,93.5C 64.4138,93.38 63.7472,92.7133 63.5,91.5C 62.9361,89.1807 62.4361,86.8474 62,84.5C 61.7787,87.9431 60.7787,88.2764 59,85.5C 57.8403,87.797 56.8403,87.4637 56,84.5C 55.3333,85.1667 54.6667,85.8333 54,86.5C 50.0624,84.1152 45.8957,82.1152 41.5,80.5C 39.4796,82.0299 37.4796,82.6965 35.5,82.5C 32.4486,82.2325 29.6153,80.8992 27,78.5C 25.2494,79.1737 23.5827,79.507 22,79.5C 19.6667,76.5 18,76.8333 17,80.5C 16.0862,79.3463 15.2529,79.513 14.5,81C 15.6537,81.9138 15.487,82.7471 14,83.5C 13.51,82.2068 13.3433,80.8734 13.5,79.5C 14.038,77.8828 14.3713,76.2161 14.5,74.5C 16.5836,70.6641 18.917,66.9974 21.5,63.5 Z"/></g>
<g><path style="opacity:0.004" fill="#fe00ff" d="M 9.5,83.5 C 10.8333,84.1667 10.8333,84.1667 9.5,83.5 Z"/></g>
<g><path style="opacity:0.993" fill="#9959fe" d="M 65.5,93.5 C 65.8182,98.0323 65.4849,102.366 64.5,106.5C 62.8684,105.092 61.2018,103.592 59.5,102C 57.567,101.749 55.7337,101.249 54,100.5C 52.2215,101.479 50.5548,101.146 49,99.5C 47.3333,99.8333 45.6667,100.167 44,100.5C 42.561,98.9861 41.061,98.6527 39.5,99.5C 37.6183,98.9067 35.7849,98.2401 34,97.5C 32.8525,98.4581 31.8525,98.1247 31,96.5C 28.3676,99.1924 26.0342,98.859 24,95.5C 22.5915,99.1685 20.9249,99.1685 19,95.5C 17.6093,97.7151 15.9426,97.7151 14,95.5C 13.6667,96.5 13.3333,97.5 13,98.5C 11.4794,98.4814 9.97937,98.148 8.5,97.5C 9.25147,91.1509 10.9181,85.1509 13.5,79.5C 13.3433,80.8734 13.51,82.2068 14,83.5C 15.487,82.7471 15.6537,81.9138 14.5,81C 15.2529,79.513 16.0862,79.3463 17,80.5C 18,76.8333 19.6667,76.5 22,79.5C 23.5827,79.507 25.2494,79.1737 27,78.5C 29.6153,80.8992 32.4486,82.2325 35.5,82.5C 37.4796,82.6965 39.4796,82.0299 41.5,80.5C 45.8957,82.1152 50.0624,84.1152 54,86.5C 54.6667,85.8333 55.3333,85.1667 56,84.5C 56.8403,87.4637 57.8403,87.797 59,85.5C 60.7787,88.2764 61.7787,87.9431 62,84.5C 62.4361,86.8474 62.9361,89.1807 63.5,91.5C 63.7472,92.7133 64.4138,93.38 65.5,93.5 Z"/></g>
<g><path style="opacity:0.993" fill="#a154fd" d="M 173.5,74.5 C 174.166,77.6893 174.833,81.0227 175.5,84.5C 177.134,84.968 178.3,85.968 179,87.5C 180.075,85.1703 181.575,83.837 183.5,83.5C 184.251,84.376 184.751,85.376 185,86.5C 185.333,85.8333 185.667,85.1667 186,84.5C 187.398,85.0509 188.732,85.3842 190,85.5C 190.333,84.8333 190.667,84.1667 191,83.5C 195.217,84.4793 199.551,84.4793 204,83.5C 204.689,82.6433 205.522,81.9767 206.5,81.5C 208.098,81.6097 209.765,81.943 211.5,82.5C 213.578,80.0136 216.245,79.0136 219.5,79.5C 219.216,77.5853 219.549,75.9187 220.5,74.5C 223.506,80.8527 225.506,87.5194 226.5,94.5C 226.657,95.8734 226.49,97.2068 226,98.5C 225.803,96.1391 224.636,94.4724 222.5,93.5C 221.808,94.0253 221.308,94.6919 221,95.5C 220.395,93.5188 219.395,93.1854 218,94.5C 217.692,93.6919 217.192,93.0253 216.5,92.5C 215.575,93.6405 214.741,93.6405 214,92.5C 212.826,94.6709 210.993,95.6709 208.5,95.5C 208.101,92.0292 206.601,91.6958 204,94.5C 202,94.5 200,94.5 198,94.5C 197.333,95.1667 196.667,95.8333 196,96.5C 193.768,95.5301 191.268,95.1968 188.5,95.5C 187.335,96.4911 186.168,97.4911 185,98.5C 183.324,95.84 181.657,95.84 180,98.5C 178.75,97.4267 177.416,97.4267 176,98.5C 174.97,98.8361 174.47,99.5028 174.5,100.5C 174.167,100.5 173.833,100.5 173.5,100.5C 173.5,91.8333 173.5,83.1667 173.5,74.5 Z"/></g>
<g><path style="opacity:0.986" fill="#ae54f9" d="M 149.5,80.5 C 151.103,80.3118 152.437,80.8118 153.5,82C 153.263,84.2884 153.263,86.7884 153.5,89.5C 155.833,89.5 158.167,89.5 160.5,89.5C 160.768,86.8806 160.435,84.3806 159.5,82C 160.905,80.7308 162.571,80.2308 164.5,80.5C 164.5,88.1667 164.5,95.8333 164.5,103.5C 163.167,103.5 161.833,103.5 160.5,103.5C 160.5,100.5 160.5,97.5 160.5,94.5C 158.142,93.8216 155.975,93.4883 154,93.5C 153.667,96.5 153.333,99.5 153,102.5C 151.667,103.833 150.333,103.833 149,102.5C 148.232,95.0531 148.398,87.7198 149.5,80.5 Z"/></g>
<g><path style="opacity:0.988" fill="#ae54f7" d="M 91.5,80.5 C 93.1439,80.2865 94.6439,80.6198 96,81.5C 97.255,85.9703 99.255,89.9703 102,93.5C 103.53,89.9099 104.864,86.2432 106,82.5C 108.084,79.967 110.084,79.967 112,82.5C 112.928,89.9402 112.594,97.2735 111,104.5C 110,103.833 109,103.167 108,102.5C 107.667,98.8333 107.333,95.1667 107,91.5C 105.47,95.0901 104.136,98.7568 103,102.5C 101.989,103.337 100.822,103.67 99.5,103.5C 98.5792,98.9862 97.0792,94.6529 95,90.5C 95.4159,94.4146 95.5826,98.248 95.5,102C 94.1354,103.682 92.6354,103.849 91,102.5C 90.9492,94.9223 91.1159,87.5889 91.5,80.5 Z"/></g>
<g><path style="opacity:0.004" fill="#fe00ff" d="M 227.5,89.5 C 228.833,90.1667 228.833,90.1667 227.5,89.5 Z"/></g>
<g><path style="opacity:0.988" fill="#ae56f8" d="M 121.5,80.5 C 122.978,80.238 124.311,80.5713 125.5,81.5C 128.374,88.7922 131.041,96.1255 133.5,103.5C 129.303,103.806 127.303,101.806 127.5,97.5C 124.753,97.1866 122.086,97.52 119.5,98.5C 118.764,100.541 117.931,102.541 117,104.5C 115.933,103.809 114.766,103.309 113.5,103C 116.094,95.4455 118.761,87.9455 121.5,80.5 Z M 122.5,87.5 C 124.462,89.425 125.295,91.7583 125,94.5C 123.989,93.6634 122.822,93.33 121.5,93.5C 121.833,91.5 122.167,89.5 122.5,87.5 Z"/></g>
<g><path style="opacity:0.79" fill="#ac54f6" d="M 132.5,80.5 C 137.5,80.5 142.5,80.5 147.5,80.5C 147.5,81.8333 147.5,83.1667 147.5,84.5C 145.5,84.5 143.5,84.5 141.5,84.5C 141.5,90.8333 141.5,97.1667 141.5,103.5C 140.167,103.5 138.833,103.5 137.5,103.5C 137.5,97.1667 137.5,90.8333 137.5,84.5C 135.533,84.2606 133.699,84.5939 132,85.5C 131.36,83.735 131.527,82.0683 132.5,80.5 Z"/></g>
<g><path style="opacity:0.991" fill="#945bfe" d="M 226.5,94.5 C 228.011,97.5443 228.678,100.878 228.5,104.5C 226.533,104.739 224.699,104.406 223,103.5C 219.58,106.117 216.58,106.117 214,103.5C 213.751,104.624 213.251,105.624 212.5,106.5C 211.389,105.389 210.055,104.722 208.5,104.5C 205.392,104.572 202.225,104.572 199,104.5C 196.358,107.011 193.691,107.011 191,104.5C 188.436,106.077 185.603,107.077 182.5,107.5C 180.625,106.164 179.292,106.664 178.5,109C 177.207,109.49 175.873,109.657 174.5,109.5C 174.5,106.5 174.5,103.5 174.5,100.5C 174.47,99.5028 174.97,98.8361 176,98.5C 177.416,97.4267 178.75,97.4267 180,98.5C 181.657,95.84 183.324,95.84 185,98.5C 186.168,97.4911 187.335,96.4911 188.5,95.5C 191.268,95.1968 193.768,95.5301 196,96.5C 196.667,95.8333 197.333,95.1667 198,94.5C 200,94.5 202,94.5 204,94.5C 206.601,91.6958 208.101,92.0292 208.5,95.5C 210.993,95.6709 212.826,94.6709 214,92.5C 214.741,93.6405 215.575,93.6405 216.5,92.5C 217.192,93.0253 217.692,93.6919 218,94.5C 219.395,93.1854 220.395,93.5188 221,95.5C 221.308,94.6919 221.808,94.0253 222.5,93.5C 224.636,94.4724 225.803,96.1391 226,98.5C 226.49,97.2068 226.657,95.8734 226.5,94.5 Z"/></g>
<g><path style="opacity:0.982" fill="#995cfb" d="M 79.5,82.5 C 81.0911,86.2036 81.9244,90.2036 82,94.5C 83.0289,90.4271 83.8622,86.4271 84.5,82.5C 84.5,90.5 84.5,98.5 84.5,106.5C 82.955,107.23 82.1216,108.563 82,110.5C 81.3405,107.322 80.5072,104.322 79.5,101.5C 79.5,95.1667 79.5,88.8333 79.5,82.5 Z"/></g>
<g><path style="opacity:0.993" fill="#8862fd" d="M 64.5,106.5 C 64.6613,109.81 64.6613,112.81 64.5,115.5C 63.71,114.391 63.21,113.058 63,111.5C 59.1394,111.022 55.4727,111.022 52,111.5C 51.6924,110.692 51.1924,110.025 50.5,109.5C 47.0985,110.502 43.7652,110.169 40.5,108.5C 38.6128,110.133 37.1128,109.8 36,107.5C 35.6667,108.167 35.3333,108.833 35,109.5C 33.3333,108.167 31.6667,108.167 30,109.5C 28.9148,108.707 27.7481,108.04 26.5,107.5C 22.7414,107.409 19.2414,107.743 16,108.5C 15.6667,107.5 15.3333,106.5 15,105.5C 14.3333,107.5 13,108.833 11,109.5C 8.91125,108.503 7.41125,106.503 6.5,103.5C 7.04816,101.374 7.71482,99.3736 8.5,97.5C 9.97937,98.148 11.4794,98.4814 13,98.5C 13.3333,97.5 13.6667,96.5 14,95.5C 15.9426,97.7151 17.6093,97.7151 19,95.5C 20.9249,99.1685 22.5915,99.1685 24,95.5C 26.0342,98.859 28.3676,99.1924 31,96.5C 31.8525,98.1247 32.8525,98.4581 34,97.5C 35.7849,98.2401 37.6183,98.9067 39.5,99.5C 41.061,98.6527 42.561,98.9861 44,100.5C 45.6667,100.167 47.3333,99.8333 49,99.5C 50.5548,101.146 52.2215,101.479 54,100.5C 55.7337,101.249 57.567,101.749 59.5,102C 61.2018,103.592 62.8684,105.092 64.5,106.5 Z"/></g>
<g><path style="opacity:0.995" fill="#8863fe" d="M 173.5,100.5 C 173.833,100.5 174.167,100.5 174.5,100.5C 174.5,103.5 174.5,106.5 174.5,109.5C 175.873,109.657 177.207,109.49 178.5,109C 179.292,106.664 180.625,106.164 182.5,107.5C 185.603,107.077 188.436,106.077 191,104.5C 193.691,107.011 196.358,107.011 199,104.5C 202.225,104.572 205.392,104.572 208.5,104.5C 210.055,104.722 211.389,105.389 212.5,106.5C 213.251,105.624 213.751,104.624 214,103.5C 216.58,106.117 219.58,106.117 223,103.5C 224.699,104.406 226.533,104.739 228.5,104.5C 229.582,108.942 229.915,113.275 229.5,117.5C 229.462,124.041 228.796,124.041 227.5,117.5C 224.049,115.286 220.716,115.286 217.5,117.5C 216.784,116.689 215.95,116.022 215,115.5C 212.229,118.091 209.396,118.091 206.5,115.5C 204.902,117.973 203.402,117.973 202,115.5C 201.259,116.641 200.425,116.641 199.5,115.5C 198.117,118.076 197.283,117.742 197,114.5C 195.471,115.583 193.971,116.583 192.5,117.5C 189.621,115.428 186.621,114.428 183.5,114.5C 182.749,115.376 182.249,116.376 182,117.5C 181.667,116.833 181.333,116.167 181,115.5C 178.591,118.167 177.424,118.001 177.5,115C 176.584,114.626 175.75,114.126 175,113.5C 174.601,113.728 174.435,114.062 174.5,114.5C 174.167,114.5 173.833,114.5 173.5,114.5C 173.5,109.833 173.5,105.167 173.5,100.5 Z"/></g>
<g><path style="opacity:0.994" fill="#7c6bfe" d="M 6.5,103.5 C 7.41125,106.503 8.91125,108.503 11,109.5C 13,108.833 14.3333,107.5 15,105.5C 15.3333,106.5 15.6667,107.5 16,108.5C 19.2414,107.743 22.7414,107.409 26.5,107.5C 27.7481,108.04 28.9148,108.707 30,109.5C 31.6667,108.167 33.3333,108.167 35,109.5C 35.3333,108.833 35.6667,108.167 36,107.5C 37.1128,109.8 38.6128,110.133 40.5,108.5C 43.7652,110.169 47.0985,110.502 50.5,109.5C 51.1924,110.025 51.6924,110.692 52,111.5C 55.4727,111.022 59.1394,111.022 63,111.5C 63.21,113.058 63.71,114.391 64.5,115.5C 64.9349,117.297 64.9349,119.297 64.5,121.5C 64.631,122.239 64.4643,122.906 64,123.5C 60.1926,122.773 56.8593,121.773 54,120.5C 53.6667,121.5 53.3333,122.5 53,123.5C 50.1256,123.041 47.7923,121.707 46,119.5C 45.6667,120.5 45.3333,121.5 45,122.5C 43.6667,122.5 42.3333,122.5 41,122.5C 39.561,120.986 38.061,120.653 36.5,121.5C 33.1404,120.464 29.9738,119.797 27,119.5C 26.3741,121.991 25.5407,121.991 24.5,119.5C 20.9246,121.705 16.9246,121.372 12.5,118.5C 12.5105,119.441 12.0105,120.108 11,120.5C 10.0546,120.095 9.38789,119.428 9,118.5C 8.78997,120.058 8.28997,121.391 7.5,122.5C 6.52333,119.713 6.19,116.713 6.5,113.5C 6.5,110.167 6.5,106.833 6.5,103.5 Z"/></g>
<g><path style="opacity:0.982" fill="#7c6dfc" d="M 79.5,101.5 C 80.5072,104.322 81.3405,107.322 82,110.5C 82.1216,108.563 82.955,107.23 84.5,106.5C 84.5,114.5 84.5,122.5 84.5,130.5C 83.5269,128.052 83.1936,125.385 83.5,122.5C 82.1667,122.5 80.8333,122.5 79.5,122.5C 79.5,115.5 79.5,108.5 79.5,101.5 Z"/></g>
<g><path style="opacity:0.994" fill="#7c6afe" d="M 229.5,117.5 C 230.571,121.678 230.571,126.011 229.5,130.5C 228.493,129.172 227.16,128.172 225.5,127.5C 224.28,128.711 223.113,128.711 222,127.5C 220.846,128.743 219.512,129.743 218,130.5C 216.17,128.243 213.837,128.243 211,130.5C 209.493,128.992 207.827,127.659 206,126.5C 205.667,127.167 205.333,127.833 205,128.5C 203,127.167 201,127.167 199,128.5C 198.683,126.699 198.016,126.366 197,127.5C 196,126.833 195,126.167 194,125.5C 191.152,129.118 188.485,128.785 186,124.5C 185.612,125.428 184.945,126.095 184,126.5C 181.535,125.578 179.201,125.578 177,126.5C 176.392,124.934 175.558,123.6 174.5,122.5C 174.5,119.833 174.5,117.167 174.5,114.5C 174.435,114.062 174.601,113.728 175,113.5C 175.75,114.126 176.584,114.626 177.5,115C 177.424,118.001 178.591,118.167 181,115.5C 181.333,116.167 181.667,116.833 182,117.5C 182.249,116.376 182.749,115.376 183.5,114.5C 186.621,114.428 189.621,115.428 192.5,117.5C 193.971,116.583 195.471,115.583 197,114.5C 197.283,117.742 198.117,118.076 199.5,115.5C 200.425,116.641 201.259,116.641 202,115.5C 203.402,117.973 204.902,117.973 206.5,115.5C 209.396,118.091 212.229,118.091 215,115.5C 215.95,116.022 216.784,116.689 217.5,117.5C 220.716,115.286 224.049,115.286 227.5,117.5C 228.796,124.041 229.462,124.041 229.5,117.5 Z"/></g>
<g><path style="opacity:0.996" fill="#6f73fe" d="M 64.5,121.5 C 65.7146,125.033 65.7146,128.699 64.5,132.5C 64.6716,133.492 64.3382,134.158 63.5,134.5C 63.6309,133.624 63.2975,132.957 62.5,132.5C 61.6667,133.5 60.8333,134.5 60,135.5C 59,134.167 58,134.167 57,135.5C 56.3333,132.833 55.6667,132.833 55,135.5C 53.4126,134.273 52.0793,134.606 51,136.5C 50.6667,135.5 50.3333,134.5 50,133.5C 49,134.833 48,134.833 47,133.5C 44.2387,136.669 41.9054,136.669 40,133.5C 38.1022,135.454 36.1022,136.454 34,136.5C 32.6538,133.751 31.3204,133.417 30,135.5C 28.6667,134.167 27.3333,132.833 26,131.5C 25.5,132 25,132.5 24.5,133C 21.5631,132.989 18.7298,133.155 16,133.5C 14.3964,132.932 13.7297,131.932 14,130.5C 19.0276,132.103 19.361,131.103 15,127.5C 14.6667,128.167 14.3333,128.833 14,129.5C 12.8982,127.619 11.5648,125.952 10,124.5C 9.05456,124.905 8.38789,125.572 8,126.5C 7.50999,125.207 7.34332,123.873 7.5,122.5C 8.28997,121.391 8.78997,120.058 9,118.5C 9.38789,119.428 10.0546,120.095 11,120.5C 12.0105,120.108 12.5105,119.441 12.5,118.5C 16.9246,121.372 20.9246,121.705 24.5,119.5C 25.5407,121.991 26.3741,121.991 27,119.5C 29.9738,119.797 33.1404,120.464 36.5,121.5C 38.061,120.653 39.561,120.986 41,122.5C 42.3333,122.5 43.6667,122.5 45,122.5C 45.3333,121.5 45.6667,120.5 46,119.5C 47.7923,121.707 50.1256,123.041 53,123.5C 53.3333,122.5 53.6667,121.5 54,120.5C 56.8593,121.773 60.1926,122.773 64,123.5C 64.4643,122.906 64.631,122.239 64.5,121.5 Z"/></g>
<g><path style="opacity:0.898" fill="#7b7cfc" d="M 142.5,114.5 C 143.552,114.351 144.552,114.517 145.5,115C 147.674,118.004 150.008,120.837 152.5,123.5C 154.623,120.754 156.623,117.921 158.5,115C 160.319,114.217 161.652,114.717 162.5,116.5C 157.83,123.169 153.663,130.169 150,137.5C 148.644,138.38 147.144,138.714 145.5,138.5C 146.134,135.063 147.467,131.896 149.5,129C 146.196,124.56 143.862,119.727 142.5,114.5 Z"/></g>
<g><path style="opacity:0.988" fill="#7286fc" d="M 127.5,115.5 C 128.496,115.414 129.329,115.748 130,116.5C 130.176,119.882 130.676,123.215 131.5,126.5C 133.979,125.048 135.979,125.548 137.5,128C 137.355,128.772 137.022,129.439 136.5,130C 134.782,130.346 133.115,130.846 131.5,131.5C 128.818,140.789 126.485,140.623 124.5,131C 121.766,130.493 119.433,129.993 117.5,129.5C 119.178,127.148 121.511,125.814 124.5,125.5C 125.015,121.919 126.015,118.586 127.5,115.5 Z"/></g>
<g><path style="opacity:0.994" fill="#6f72fe" d="M 174.5,122.5 C 175.558,123.6 176.392,124.934 177,126.5C 179.201,125.578 181.535,125.578 184,126.5C 184.945,126.095 185.612,125.428 186,124.5C 188.485,128.785 191.152,129.118 194,125.5C 195,126.167 196,126.833 197,127.5C 198.016,126.366 198.683,126.699 199,128.5C 201,127.167 203,127.167 205,128.5C 205.333,127.833 205.667,127.167 206,126.5C 207.827,127.659 209.493,128.992 211,130.5C 213.837,128.243 216.17,128.243 218,130.5C 219.512,129.743 220.846,128.743 222,127.5C 223.113,128.711 224.28,128.711 225.5,127.5C 227.16,128.172 228.493,129.172 229.5,130.5C 229.599,133.237 229.265,135.904 228.5,138.5C 227.641,141.212 226.475,143.878 225,146.5C 224.89,143.354 223.557,142.354 221,143.5C 220.309,141.109 219.309,141.109 218,143.5C 217.641,140.456 216.974,140.122 216,142.5C 215.667,141.833 215.333,141.167 215,140.5C 211.978,140.88 208.978,141.213 206,141.5C 203.667,140.833 201.333,140.167 199,139.5C 198.333,142.167 197.667,142.167 197,139.5C 196.439,140.022 195.772,140.355 195,140.5C 192.845,139.756 190.845,138.756 189,137.5C 186.675,138.184 184.342,137.851 182,136.5C 181.333,137.833 180.667,137.833 180,136.5C 179.333,139.167 178.667,139.167 178,136.5C 177,137.833 176,137.833 175,136.5C 174.501,131.845 174.334,127.179 174.5,122.5 Z"/></g>
<g><path style="opacity:0.698" fill="#7582fb" d="M 98.5,114.5 C 101.366,116.546 103.533,119.213 105,122.5C 106.833,120 108.667,117.5 110.5,115C 113.134,114.075 114.301,114.909 114,117.5C 111.833,120.333 109.667,123.167 107.5,126C 110.764,129.699 113.097,133.866 114.5,138.5C 113.127,138.657 111.793,138.49 110.5,138C 108.66,135.331 106.66,132.831 104.5,130.5C 102.957,133.086 101.291,135.586 99.5,138C 97.597,138.774 95.9304,138.44 94.5,137C 97.5535,133.613 100.22,129.947 102.5,126C 100.3,123.766 98.4669,121.266 97,118.5C 96.516,116.807 97.016,115.473 98.5,114.5 Z"/></g>
<g><path style="opacity:0.994" fill="#637cfe" d="M 6.5,113.5 C 6.19,116.713 6.52333,119.713 7.5,122.5C 7.34332,123.873 7.50999,125.207 8,126.5C 8.38789,125.572 9.05456,124.905 10,124.5C 11.5648,125.952 12.8982,127.619 14,129.5C 14.3333,128.833 14.6667,128.167 15,127.5C 19.361,131.103 19.0276,132.103 14,130.5C 13.7297,131.932 14.3964,132.932 16,133.5C 18.7298,133.155 21.5631,132.989 24.5,133C 25,132.5 25.5,132 26,131.5C 27.3333,132.833 28.6667,134.167 30,135.5C 31.3204,133.417 32.6538,133.751 34,136.5C 36.1022,136.454 38.1022,135.454 40,133.5C 41.9054,136.669 44.2387,136.669 47,133.5C 48,134.833 49,134.833 50,133.5C 50.3333,134.5 50.6667,135.5 51,136.5C 52.0793,134.606 53.4126,134.273 55,135.5C 55.6667,132.833 56.3333,132.833 57,135.5C 58,134.167 59,134.167 60,135.5C 60.8333,134.5 61.6667,133.5 62.5,132.5C 63.2975,132.957 63.6309,133.624 63.5,134.5C 64.4349,137.113 64.6015,139.779 64,142.5C 63.7811,141.062 63.2811,139.729 62.5,138.5C 62.6869,139.817 62.0202,141.15 60.5,142.5C 58.5866,143.373 56.7533,144.373 55,145.5C 54.6667,144.833 54.3333,144.167 54,143.5C 53.5291,145.246 52.8624,146.913 52,148.5C 51.3333,147.167 50.6667,147.167 50,148.5C 50.7575,144.787 49.2575,143.787 45.5,145.5C 46.7908,147.59 46.1242,148.924 43.5,149.5C 42.086,148.376 40.586,147.376 39,146.5C 37.8668,148.211 36.3668,148.711 34.5,148C 35.6039,146.869 35.2705,146.035 33.5,145.5C 32.6667,146.5 31.8333,147.5 31,148.5C 29.6667,147.167 28.3333,147.167 27,148.5C 25.5691,145.772 23.5691,145.105 21,146.5C 18.8044,145.91 16.6378,145.243 14.5,144.5C 15.0164,145.758 14.3497,146.758 12.5,147.5C 13.9884,149.886 13.6551,150.552 11.5,149.5C 10.8333,149.167 10.1667,148.833 9.5,148.5C 6.55642,136.84 5.55642,125.174 6.5,113.5 Z"/></g>
<g><path style="opacity:0.992" fill="#6283fd" d="M 79.5,122.5 C 80.8333,122.5 82.1667,122.5 83.5,122.5C 83.1936,125.385 83.5269,128.052 84.5,130.5C 84.5,135.167 84.5,139.833 84.5,144.5C 83.8485,145.091 83.1818,145.757 82.5,146.5C 82.026,143.783 81.026,141.45 79.5,139.5C 79.5,133.833 79.5,128.167 79.5,122.5 Z"/></g>
<g><path style="opacity:0.995" fill="#5a80fe" d="M 64.5,132.5 C 65.4902,138.645 65.8235,144.978 65.5,151.5C 64.7784,151.918 64.2784,152.584 64,153.5C 63.6924,152.692 63.1924,152.025 62.5,151.5C 61.5713,152.689 61.238,154.022 61.5,155.5C 56.9809,153.959 53.9809,155.625 52.5,160.5C 51.2519,159.96 50.0852,159.293 49,158.5C 47.3335,159.34 47.1669,158.84 48.5,157C 46.4328,156.464 44.5994,156.964 43,158.5C 39.7973,155.65 36.4639,155.316 33,157.5C 31.6768,154.837 29.3435,152.504 26,150.5C 23.2016,152.799 20.5349,152.799 18,150.5C 16.3333,151.5 14.6667,152.5 13,153.5C 11.8118,152.437 11.3118,151.103 11.5,149.5C 13.6551,150.552 13.9884,149.886 12.5,147.5C 14.3497,146.758 15.0164,145.758 14.5,144.5C 16.6378,145.243 18.8044,145.91 21,146.5C 23.5691,145.105 25.5691,145.772 27,148.5C 28.3333,147.167 29.6667,147.167 31,148.5C 31.8333,147.5 32.6667,146.5 33.5,145.5C 35.2705,146.035 35.6039,146.869 34.5,148C 36.3668,148.711 37.8668,148.211 39,146.5C 40.586,147.376 42.086,148.376 43.5,149.5C 46.1242,148.924 46.7908,147.59 45.5,145.5C 49.2575,143.787 50.7575,144.787 50,148.5C 50.6667,147.167 51.3333,147.167 52,148.5C 52.8624,146.913 53.5291,145.246 54,143.5C 54.3333,144.167 54.6667,144.833 55,145.5C 56.7533,144.373 58.5866,143.373 60.5,142.5C 62.0202,141.15 62.6869,139.817 62.5,138.5C 63.2811,139.729 63.7811,141.062 64,142.5C 64.6015,139.779 64.4349,137.113 63.5,134.5C 64.3382,134.158 64.6716,133.492 64.5,132.5 Z"/></g>
<g><path style="opacity:0.995" fill="#607dfe" d="M 173.5,114.5 C 173.833,114.5 174.167,114.5 174.5,114.5C 174.5,117.167 174.5,119.833 174.5,122.5C 174.334,127.179 174.501,131.845 175,136.5C 176,137.833 177,137.833 178,136.5C 178.667,139.167 179.333,139.167 180,136.5C 180.667,137.833 181.333,137.833 182,136.5C 184.342,137.851 186.675,138.184 189,137.5C 190.845,138.756 192.845,139.756 195,140.5C 195.772,140.355 196.439,140.022 197,139.5C 197.667,142.167 198.333,142.167 199,139.5C 201.333,140.167 203.667,140.833 206,141.5C 208.978,141.213 211.978,140.88 215,140.5C 215.333,141.167 215.667,141.833 216,142.5C 216.974,140.122 217.641,140.456 218,143.5C 219.309,141.109 220.309,141.109 221,143.5C 223.557,142.354 224.89,143.354 225,146.5C 226.475,143.878 227.641,141.212 228.5,138.5C 228.083,144.17 226.749,149.503 224.5,154.5C 223.124,156.132 221.291,157.799 219,159.5C 217,158.833 215,158.167 213,157.5C 211.853,158.458 210.853,158.125 210,156.5C 208.007,158.434 205.841,160.1 203.5,161.5C 198.356,162.297 193.356,162.297 188.5,161.5C 187.5,161 186.5,160.5 185.5,160C 185.833,159.667 186.167,159.333 186.5,159C 183.993,158.907 181.826,158.074 180,156.5C 179.667,156.833 179.333,157.167 179,157.5C 178.3,155.968 177.134,154.968 175.5,154.5C 174.833,149.683 174.166,145.017 173.5,140.5C 173.5,131.833 173.5,123.167 173.5,114.5 Z"/></g>
<g><path style="opacity:0.984" fill="#5b97fd" d="M 108.5,142.5 C 124.167,142.5 139.833,142.5 155.5,142.5C 155.657,143.873 155.49,145.207 155,146.5C 145.255,152.247 137.921,160.247 133,170.5C 131.842,170.002 131.009,169.169 130.5,168C 131.791,165.95 132.291,163.783 132,161.5C 131.667,161.833 131.333,162.167 131,162.5C 130.803,160.139 129.636,158.472 127.5,157.5C 125.908,152.924 127.241,151.758 131.5,154C 132.155,155.487 133.155,156.653 134.5,157.5C 137.467,153.034 141.467,149.867 146.5,148C 144.333,147.833 142.167,147.667 140,147.5C 137.375,147.581 135.041,148.248 133,149.5C 131.991,148.342 130.658,147.675 129,147.5C 126.495,148.191 124.162,148.524 122,148.5C 117.251,147.695 112.418,147.195 107.5,147C 108.38,145.644 108.714,144.144 108.5,142.5 Z"/></g>
<g><path style="opacity:0.012" fill="#55aaff" d="M 228.5,145.5 C 229.833,146.167 229.833,146.167 228.5,145.5 Z"/></g>
<g><path style="opacity:0.004" fill="#5ed5ff" d="M 8.5,152.5 C 9.52502,152.897 9.69169,153.563 9,154.5C 8.53566,153.906 8.36899,153.239 8.5,152.5 Z"/></g>
<g><path style="opacity:0.016" fill="#7f7fff" d="M 226.5,153.5 C 227.833,154.167 227.833,154.167 226.5,153.5 Z"/></g>
<g><path style="opacity:0.995" fill="#4e88fe" d="M 9.5,148.5 C 10.1667,148.833 10.8333,149.167 11.5,149.5C 11.3118,151.103 11.8118,152.437 13,153.5C 14.6667,152.5 16.3333,151.5 18,150.5C 20.5349,152.799 23.2016,152.799 26,150.5C 29.3435,152.504 31.6768,154.837 33,157.5C 36.4639,155.316 39.7973,155.65 43,158.5C 44.5994,156.964 46.4328,156.464 48.5,157C 47.1669,158.84 47.3335,159.34 49,158.5C 50.0852,159.293 51.2519,159.96 52.5,160.5C 53.9809,155.625 56.9809,153.959 61.5,155.5C 61.238,154.022 61.5713,152.689 62.5,151.5C 63.1924,152.025 63.6924,152.692 64,153.5C 64.2784,152.584 64.7784,151.918 65.5,151.5C 65.1409,157.654 65.1409,163.654 65.5,169.5C 64.8826,169.611 64.3826,169.944 64,170.5C 63.6667,168.5 63.3333,166.5 63,164.5C 62.0739,167.735 60.7405,170.735 59,173.5C 58.3333,170.833 57.6667,170.833 57,173.5C 56.6667,172.833 56.3333,172.167 56,171.5C 53.713,172.474 51.713,173.807 50,175.5C 49.6827,173.699 49.016,173.366 48,174.5C 47.6924,173.692 47.1924,173.025 46.5,172.5C 46.1667,173.167 45.8333,173.833 45.5,174.5C 43.497,174.089 41.6637,172.755 40,170.5C 39.3333,172.5 38,173.833 36,174.5C 34.3333,174.167 32.6667,173.833 31,173.5C 30.0255,175.878 29.3589,175.544 29,172.5C 28.3333,175.167 27.6667,175.167 27,172.5C 26,173.167 25,173.833 24,174.5C 21.0249,172.055 19.0249,169.055 18,165.5C 17.3292,166.252 16.4959,166.586 15.5,166.5C 12.9048,160.715 10.9048,154.715 9.5,148.5 Z"/></g>
<g><path style="opacity:0.945" fill="#57a0fd" d="M 117.5,149.5 C 118.472,148.249 119.139,148.582 119.5,150.5C 120.575,156.134 120.742,161.801 120,167.5C 119.612,168.428 118.945,169.095 118,169.5C 116.101,167.401 114.934,164.901 114.5,162C 111.711,161.759 109.044,161.092 106.5,160C 107.967,158.902 108.801,157.402 109,155.5C 110.726,156.576 112.559,156.743 114.5,156C 115.109,153.49 116.442,151.49 118.5,150C 118.272,149.601 117.938,149.435 117.5,149.5 Z"/></g>
<g><path style="opacity:0.993" fill="#4e89fd" d="M 173.5,140.5 C 174.166,145.017 174.833,149.683 175.5,154.5C 177.134,154.968 178.3,155.968 179,157.5C 179.333,157.167 179.667,156.833 180,156.5C 181.826,158.074 183.993,158.907 186.5,159C 186.167,159.333 185.833,159.667 185.5,160C 186.5,160.5 187.5,161 188.5,161.5C 193.356,162.297 198.356,162.297 203.5,161.5C 205.841,160.1 208.007,158.434 210,156.5C 210.853,158.125 211.853,158.458 213,157.5C 215,158.167 217,158.833 219,159.5C 221.291,157.799 223.124,156.132 224.5,154.5C 222.647,161.203 219.98,167.536 216.5,173.5C 215.883,173.389 215.383,173.056 215,172.5C 214.261,174.221 213.427,175.887 212.5,177.5C 211.808,176.975 211.308,176.308 211,175.5C 210.612,176.428 209.945,177.095 209,177.5C 207.85,176.576 206.85,176.576 206,177.5C 205.71,175.956 205.044,174.623 204,173.5C 203.374,175.991 202.541,175.991 201.5,173.5C 198.998,174.683 196.665,175.349 194.5,175.5C 192.106,173.932 189.606,172.599 187,171.5C 185.667,172.167 184.333,172.833 183,173.5C 180.137,172.04 177.47,170.373 175,168.5C 174.817,165.635 174.317,162.969 173.5,160.5C 173.5,153.833 173.5,147.167 173.5,140.5 Z"/></g>
<g><path style="opacity:0.996" fill="#3d93fe" d="M 173.5,160.5 C 174.317,162.969 174.817,165.635 175,168.5C 177.47,170.373 180.137,172.04 183,173.5C 184.333,172.833 185.667,172.167 187,171.5C 189.606,172.599 192.106,173.932 194.5,175.5C 196.665,175.349 198.998,174.683 201.5,173.5C 202.541,175.991 203.374,175.991 204,173.5C 205.044,174.623 205.71,175.956 206,177.5C 206.85,176.576 207.85,176.576 209,177.5C 209.945,177.095 210.612,176.428 211,175.5C 211.308,176.308 211.808,176.975 212.5,177.5C 213.427,175.887 214.261,174.221 215,172.5C 215.383,173.056 215.883,173.389 216.5,173.5C 215.32,176.54 213.653,179.206 211.5,181.5C 209.264,182.389 207.264,183.722 205.5,185.5C 204.184,182.972 203.017,182.972 202,185.5C 197.006,184.458 191.84,183.125 186.5,181.5C 186,180.5 185.5,179.5 185,178.5C 183,178.5 181,178.5 179,178.5C 178.389,174.728 177.389,174.728 176,178.5C 174.587,176.348 173.754,174.014 173.5,171.5C 173.5,167.833 173.5,164.167 173.5,160.5 Z"/></g>
<g><path style="opacity:0.995" fill="#3b97fd" d="M 79.5,139.5 C 81.026,141.45 82.026,143.783 82.5,146.5C 83.1818,145.757 83.8485,145.091 84.5,144.5C 84.501,153.341 84.8343,162.174 85.5,171C 99.1626,171.5 112.829,171.667 126.5,171.5C 124.657,172.283 122.657,172.95 120.5,173.5C 108.884,172.521 97.2176,172.188 85.5,172.5C 85.5,173.5 85.5,174.5 85.5,175.5C 88.3854,175.194 91.0521,175.527 93.5,176.5C 84.1667,176.5 74.8333,176.5 65.5,176.5C 65.3402,179.516 65.0069,182.183 64.5,184.5C 63.6906,185.469 62.6906,186.302 61.5,187C 62.6471,189.853 61.8138,190.686 59,189.5C 57.2382,189.944 57.4049,190.444 59.5,191C 57.6332,191.711 56.1332,191.211 55,189.5C 53.4301,190.614 52.0968,191.947 51,193.5C 46.6642,191.381 42.6642,191.715 39,194.5C 38.3828,193.551 38.5494,192.718 39.5,192C 38.5509,191.383 37.7175,191.549 37,192.5C 36.1475,190.875 35.1475,190.542 34,191.5C 32.871,189.859 31.371,188.859 29.5,188.5C 23.6831,181.993 19.0165,174.659 15.5,166.5C 16.4959,166.586 17.3292,166.252 18,165.5C 19.0249,169.055 21.0249,172.055 24,174.5C 25,173.833 26,173.167 27,172.5C 27.6667,175.167 28.3333,175.167 29,172.5C 29.3589,175.544 30.0255,175.878 31,173.5C 32.6667,173.833 34.3333,174.167 36,174.5C 38,173.833 39.3333,172.5 40,170.5C 41.6637,172.755 43.497,174.089 45.5,174.5C 45.8333,173.833 46.1667,173.167 46.5,172.5C 47.1924,173.025 47.6924,173.692 48,174.5C 49.016,173.366 49.6827,173.699 50,175.5C 51.713,173.807 53.713,172.474 56,171.5C 56.3333,172.167 56.6667,172.833 57,173.5C 57.6667,170.833 58.3333,170.833 59,173.5C 60.7405,170.735 62.0739,167.735 63,164.5C 63.3333,166.5 63.6667,168.5 64,170.5C 64.3826,169.944 64.8826,169.611 65.5,169.5C 65.369,170.239 65.5357,170.906 66,171.5C 70.4218,171.355 74.7552,171.355 79,171.5C 79.4998,160.839 79.6665,150.172 79.5,139.5 Z"/></g>
<g><path style="opacity:0.98" fill="#3ca6fc" d="M 80.5,184.5 C 107.5,184.5 134.5,184.5 161.5,184.5C 161.5,185.833 161.5,187.167 161.5,188.5C 136.702,189.105 111.535,189.438 86,189.5C 83.2732,188.842 80.7732,187.675 78.5,186C 79.4158,185.722 80.0825,185.222 80.5,184.5 Z"/></g>
<g><path style="opacity:0.996" fill="#369dfd" d="M 173.5,171.5 C 173.754,174.014 174.587,176.348 176,178.5C 177.389,174.728 178.389,174.728 179,178.5C 181,178.5 183,178.5 185,178.5C 185.5,179.5 186,180.5 186.5,181.5C 191.84,183.125 197.006,184.458 202,185.5C 203.017,182.972 204.184,182.972 205.5,185.5C 207.264,183.722 209.264,182.389 211.5,181.5C 208.882,186.413 205.548,190.746 201.5,194.5C 199.482,193.377 197.482,193.377 195.5,194.5C 194.833,193.833 194.167,193.167 193.5,192.5C 192.575,193.641 191.741,193.641 191,192.5C 190.667,193.167 190.333,193.833 190,194.5C 188.474,189.373 187.474,189.373 187,194.5C 186.71,192.956 186.044,191.623 185,190.5C 184.667,190.833 184.333,191.167 184,191.5C 181.649,190.286 179.149,189.452 176.5,189C 176,188.5 175.5,188 175,187.5C 174.823,183.644 174.323,179.977 173.5,176.5C 146.975,176.791 120.309,176.791 93.5,176.5C 91.0521,175.527 88.3854,175.194 85.5,175.5C 85.5,174.5 85.5,173.5 85.5,172.5C 97.2176,172.188 108.884,172.521 120.5,173.5C 122.657,172.95 124.657,172.283 126.5,171.5C 141.712,171.127 157.379,171.127 173.5,171.5 Z"/></g>
<g><path style="opacity:0.986" fill="#25a4fd" d="M 173.5,176.5 C 174.323,179.977 174.823,183.644 175,187.5C 175.5,188 176,188.5 176.5,189C 179.149,189.452 181.649,190.286 184,191.5C 184.333,191.167 184.667,190.833 185,190.5C 186.044,191.623 186.71,192.956 187,194.5C 187.474,189.373 188.474,189.373 190,194.5C 190.333,193.833 190.667,193.167 191,192.5C 191.741,193.641 192.575,193.641 193.5,192.5C 194.167,193.167 194.833,193.833 195.5,194.5C 197.482,193.377 199.482,193.377 201.5,194.5C 198.126,198.876 194.126,202.542 189.5,205.5C 187.4,205.477 185.567,206.144 184,207.5C 182.387,205.693 180.553,204.027 178.5,202.5C 174.636,202.708 170.469,203.041 166,203.5C 149.667,202.833 133.333,202.167 117,201.5C 112.01,203.508 106.843,203.508 101.5,201.5C 96.8887,202.61 92.222,202.777 87.5,202C 92.498,201.572 92.6647,200.739 88,199.5C 85.8055,202.037 82.9721,203.037 79.5,202.5C 77.1933,202.014 75.0266,202.014 73,202.5C 70.6894,200.483 71.0228,199.149 74,198.5C 75.2613,198.759 76.2613,199.426 77,200.5C 77.2784,199.584 77.7784,198.918 78.5,198.5C 107.023,198.532 135.69,198.366 164.5,198C 168.538,197.399 171.371,195.232 173,191.5C 173.499,186.511 173.666,181.511 173.5,176.5 Z"/></g>
<g><path style="opacity:0.996" fill="#25a3fe" d="M 64.5,184.5 C 65.0761,188.232 66.2428,191.898 68,195.5C 71.466,196.941 74.966,197.941 78.5,198.5C 77.7784,198.918 77.2784,199.584 77,200.5C 76.2613,199.426 75.2613,198.759 74,198.5C 71.0228,199.149 70.6894,200.483 73,202.5C 75.0266,202.014 77.1933,202.014 79.5,202.5C 80.9526,203.825 80.6192,204.658 78.5,205C 79.2797,206.073 79.113,207.24 78,208.5C 76.4419,207.655 75.4419,208.321 75,210.5C 73.8525,209.542 72.8525,209.875 72,211.5C 71.6667,210.833 71.3333,210.167 71,209.5C 70.1762,210.808 69.6762,212.308 69.5,214C 67.2936,213.715 65.1269,213.548 63,213.5C 62.1482,214.571 61.3149,215.571 60.5,216.5C 47.6485,209.983 37.3152,200.65 29.5,188.5C 31.371,188.859 32.871,189.859 34,191.5C 35.1475,190.542 36.1475,190.875 37,192.5C 37.7175,191.549 38.5509,191.383 39.5,192C 38.5494,192.718 38.3828,193.551 39,194.5C 42.6642,191.715 46.6642,191.381 51,193.5C 52.0968,191.947 53.4301,190.614 55,189.5C 56.1332,191.211 57.6332,191.711 59.5,191C 57.4049,190.444 57.2382,189.944 59,189.5C 61.8138,190.686 62.6471,189.853 61.5,187C 62.6906,186.302 63.6906,185.469 64.5,184.5 Z"/></g>
<g><path style="opacity:0.996" fill="#18aafe" d="M 189.5,205.5 C 181.689,212.914 172.689,218.58 162.5,222.5C 160.621,222.607 160.288,222.107 161.5,221C 160.333,220.5 159.5,219.667 159,218.5C 158.692,219.308 158.192,219.975 157.5,220.5C 155.099,219.629 152.599,218.962 150,218.5C 149.667,219.167 149.333,219.833 149,220.5C 147.402,217.075 145.402,216.742 143,219.5C 141.601,218.773 140.101,218.273 138.5,218C 140.595,217.444 140.762,216.944 139,216.5C 134.32,218.219 129.32,218.886 124,218.5C 123.167,217.5 122.333,216.5 121.5,215.5C 119.971,216.284 118.304,217.284 116.5,218.5C 115.749,217.624 115.249,216.624 115,215.5C 113.983,218.028 112.816,218.028 111.5,215.5C 110.304,215.846 110.304,216.346 111.5,217C 109.444,217.311 107.444,217.811 105.5,218.5C 104.197,217.282 103.197,217.615 102.5,219.5C 101.757,218.092 100.923,216.759 100,215.5C 99.6667,216.167 99.3333,216.833 99,217.5C 96.81,214.751 95.1433,215.085 94,218.5C 91.5847,217.986 90.2514,216.986 90,215.5C 88.5835,217.972 86.4168,220.472 83.5,223C 85.6031,223.853 85.6031,225.02 83.5,226.5C 75.073,224.699 67.4063,221.366 60.5,216.5C 61.3149,215.571 62.1482,214.571 63,213.5C 65.1269,213.548 67.2936,213.715 69.5,214C 69.6762,212.308 70.1762,210.808 71,209.5C 71.3333,210.167 71.6667,210.833 72,211.5C 72.8525,209.875 73.8525,209.542 75,210.5C 75.4419,208.321 76.4419,207.655 78,208.5C 79.113,207.24 79.2797,206.073 78.5,205C 80.6192,204.658 80.9526,203.825 79.5,202.5C 82.9721,203.037 85.8055,202.037 88,199.5C 92.6647,200.739 92.498,201.572 87.5,202C 92.222,202.777 96.8887,202.61 101.5,201.5C 106.843,203.508 112.01,203.508 117,201.5C 133.333,202.167 149.667,202.833 166,203.5C 170.469,203.041 174.636,202.708 178.5,202.5C 180.553,204.027 182.387,205.693 184,207.5C 185.567,206.144 187.4,205.477 189.5,205.5 Z"/></g>
<g><path style="opacity:0.996" fill="#12adfe" d="M 162.5,222.5 C 136.605,233.632 110.272,234.965 83.5,226.5C 85.6031,225.02 85.6031,223.853 83.5,223C 86.4168,220.472 88.5835,217.972 90,215.5C 90.2514,216.986 91.5847,217.986 94,218.5C 95.1433,215.085 96.81,214.751 99,217.5C 99.3333,216.833 99.6667,216.167 100,215.5C 100.923,216.759 101.757,218.092 102.5,219.5C 103.197,217.615 104.197,217.282 105.5,218.5C 107.444,217.811 109.444,217.311 111.5,217C 110.304,216.346 110.304,215.846 111.5,215.5C 112.816,218.028 113.983,218.028 115,215.5C 115.249,216.624 115.749,217.624 116.5,218.5C 118.304,217.284 119.971,216.284 121.5,215.5C 122.333,216.5 123.167,217.5 124,218.5C 129.32,218.886 134.32,218.219 139,216.5C 140.762,216.944 140.595,217.444 138.5,218C 140.101,218.273 141.601,218.773 143,219.5C 145.402,216.742 147.402,217.075 149,220.5C 149.333,219.833 149.667,219.167 150,218.5C 152.599,218.962 155.099,219.629 157.5,220.5C 158.192,219.975 158.692,219.308 159,218.5C 159.5,219.667 160.333,220.5 161.5,221C 160.288,222.107 160.621,222.607 162.5,222.5 Z"/></g>
<g><path style="opacity:0.004" fill="#00fffe" d="M 129.5,232.5 C 130.833,233.167 130.833,233.167 129.5,232.5 Z"/></g>
</svg>
